<svg width="1400" height="360" viewBox="0 0 1400 360" fill="none" xmlns="http://www.w3.org/2000/svg">
  <defs>
    <linearGradient id="bg" x1="0" y1="0" x2="1400" y2="360" gradientUnits="userSpaceOnUse">
      <stop stop-color="#080B1A"/>
      <stop offset="0.52" stop-color="#15113A"/>
      <stop offset="1" stop-color="#061E31"/>
    </linearGradient>
    <linearGradient id="line" x1="100" y1="60" x2="1300" y2="300" gradientUnits="userSpaceOnUse">
      <stop stop-color="#A78BFA"/>
      <stop offset="0.5" stop-color="#22D3EE"/>
      <stop offset="1" stop-color="#34D399"/>
    </linearGradient>
    <radialGradient id="glow" cx="0" cy="0" r="1" gradientTransform="translate(1090 100) rotate(135) scale(260)">
      <stop stop-color="#7C3AED" stop-opacity="0.45"/>
      <stop offset="1" stop-color="#7C3AED" stop-opacity="0"/>
    </radialGradient>
    <filter id="blur"><feGaussianBlur stdDeviation="28"/></filter>
  </defs>
  <rect width="1400" height="360" rx="28" fill="url(#bg)"/>
  <circle cx="1090" cy="100" r="210" fill="url(#glow)" filter="url(#blur)"/>
  <path d="M0 286C190 220 285 338 475 266C684 187 726 42 944 104C1124 155 1218 248 1400 170" stroke="url(#line)" stroke-opacity="0.24" stroke-width="2"/>
  <path d="M0 310C190 244 286 360 490 290C690 221 742 83 950 139C1128 186 1220 276 1400 198" stroke="url(#line)" stroke-opacity="0.16" stroke-width="2"/>
  <g opacity="0.32" stroke="#67E8F9" stroke-width="1">
    <path d="M760 0V360M880 0V360M1000 0V360M1120 0V360M1240 0V360"/>
    <path d="M700 80H1400M700 160H1400M700 240H1400M700 320H1400"/>
  </g>
  <g fill="#A78BFA">
    <circle cx="760" cy="80" r="3"/><circle cx="1000" cy="160" r="3"/><circle cx="1240" cy="240" r="3"/>
  </g>
  <g transform="translate(1040 72)">
    <circle cx="100" cy="100" r="76" stroke="#67E8F9" stroke-opacity="0.8" stroke-width="2"/>
    <circle cx="100" cy="100" r="50" stroke="#A78BFA" stroke-opacity="0.7" stroke-width="2"/>
    <path d="M100 12V188M12 100H188M38 38L162 162M162 38L38 162" stroke="#34D399" stroke-opacity="0.55" stroke-width="2"/>
    <path d="M100 54L130 100L100 146L70 100L100 54Z" fill="#22D3EE" fill-opacity="0.22" stroke="#67E8F9" stroke-width="2"/>
    <circle cx="100" cy="100" r="9" fill="#F0FDFA"/>
  </g>
  <text x="86" y="132" fill="#F8FAFC" font-family="Inter,Segoe UI,sans-serif" font-size="64" font-weight="750" letter-spacing="-2">NebulaForge</text>
  <text x="91" y="180" fill="#A5B4FC" font-family="Inter,Segoe UI,sans-serif" font-size="22" font-weight="500" letter-spacing="3">UNREAL ENGINE × MCP AUTOMATION</text>
  <text x="91" y="238" fill="#CBD5E1" font-family="Inter,Segoe UI,sans-serif" font-size="20">Inspect • Author • Test • Profile • Ship</text>
  <rect x="91" y="270" width="182" height="34" rx="17" fill="#7C3AED" fill-opacity="0.28" stroke="#A78BFA" stroke-opacity="0.7"/>
  <text x="112" y="293" fill="#EDE9FE" font-family="Inter,Segoe UI,sans-serif" font-size="14" font-weight="650">23 CANONICAL TOOLS</text>
</svg>
